<?xml version="1.0" encoding="UTF-8"?>
<svg xmlns="http://www.w3.org/2000/svg" xmlns:xlink="http://www.w3.org/1999/xlink" width="796.394pt" height="884.519pt" viewBox="0 0 796.394 884.519" version="1.2">
<defs>
<clipPath id="clip1">
  <path d="M 0 798 L 75 798 L 75 883.941406 L 0 883.941406 Z M 0 798 "/>
</clipPath>
<clipPath id="clip2">
  <path d="M 91 798 L 181 798 L 181 883.941406 L 91 883.941406 Z M 91 798 "/>
</clipPath>
<clipPath id="clip3">
  <path d="M 628 798 L 703 798 L 703 883.941406 L 628 883.941406 Z M 628 798 "/>
</clipPath>
<clipPath id="clip4">
  <path d="M 725 799 L 795.789062 799 L 795.789062 883 L 725 883 Z M 725 799 "/>
</clipPath>
<clipPath id="clip5">
  <path d="M 769 719 L 795.789062 719 L 795.789062 752 L 769 752 Z M 769 719 "/>
</clipPath>
<clipPath id="clip6">
  <path d="M 725 769 L 795.789062 769 L 795.789062 778 L 725 778 Z M 725 769 "/>
</clipPath>
<clipPath id="clip7">
  <path d="M 688 572 L 795.789062 572 L 795.789062 668 L 688 668 Z M 688 572 "/>
</clipPath>
<clipPath id="clip8">
  <path d="M 171 0.0976562 L 625 0.0976562 L 625 453 L 171 453 Z M 171 0.0976562 "/>
</clipPath>
</defs>
<g id="surface1">
<g clip-path="url(#clip1)" clip-rule="nonzero">
<path style=" stroke:none;fill-rule:nonzero;fill:rgb(39.610291%,38.511658%,38.78479%);fill-opacity:1;" d="M 0 840.972656 C 0 815.367188 17.582031 798.222656 43.738281 798.222656 C 54.726562 798.222656 66.597656 802.289062 73.742188 808.441406 L 73.742188 818.554688 C 66.707031 811.628906 55.386719 807.125 45.386719 807.125 C 24.398438 807.125 10.332031 820.640625 10.332031 841.082031 C 10.332031 861.414062 24.398438 875.039062 45.496094 875.039062 C 55.609375 875.039062 67.367188 870.203125 74.839844 862.84375 L 74.839844 873.171875 C 67.367188 879.65625 54.949219 883.941406 43.738281 883.941406 C 17.472656 883.941406 0 866.796875 0 840.972656 "/>
</g>
<g clip-path="url(#clip2)" clip-rule="nonzero">
<path style=" stroke:none;fill-rule:nonzero;fill:rgb(39.610291%,38.511658%,38.78479%);fill-opacity:1;" d="M 170.125 841.082031 C 170.125 820.75 156.496094 807.125 136.054688 807.125 C 115.722656 807.125 102.097656 820.75 102.097656 841.082031 C 102.097656 861.414062 115.722656 875.039062 136.054688 875.039062 C 156.496094 875.039062 170.125 861.414062 170.125 841.082031 M 91.65625 841.082031 C 91.65625 815.367188 109.460938 798.222656 136.054688 798.222656 C 162.757812 798.222656 180.453125 815.367188 180.453125 841.082031 C 180.453125 866.796875 162.757812 883.941406 136.054688 883.941406 C 109.460938 883.941406 91.65625 866.796875 91.65625 841.082031 "/>
</g>
<path style=" stroke:none;fill-rule:nonzero;fill:rgb(39.610291%,38.511658%,38.78479%);fill-opacity:1;" d="M 294.53125 799.320312 L 294.53125 882.84375 L 284.859375 882.84375 L 284.859375 814.046875 L 249.914062 857.128906 L 248.921875 857.128906 L 213.976562 813.9375 L 213.976562 882.84375 L 204.304688 882.84375 L 204.304688 799.320312 L 213.976562 799.320312 L 249.472656 843.28125 L 284.859375 799.320312 Z M 294.53125 799.320312 "/>
<path style=" stroke:none;fill-rule:nonzero;fill:rgb(39.610291%,38.511658%,38.78479%);fill-opacity:1;" d="M 413.992188 799.320312 L 413.992188 882.84375 L 404.320312 882.84375 L 404.320312 814.046875 L 369.375 857.128906 L 368.382812 857.128906 L 333.4375 813.9375 L 333.4375 882.84375 L 323.765625 882.84375 L 323.765625 799.320312 L 333.4375 799.320312 L 368.933594 843.28125 L 404.320312 799.320312 Z M 413.992188 799.320312 "/>
<path style=" stroke:none;fill-rule:nonzero;fill:rgb(39.610291%,38.511658%,38.78479%);fill-opacity:1;" d="M 513.234375 874.273438 L 513.234375 882.84375 L 443.226562 882.84375 L 443.226562 799.320312 L 512.023438 799.320312 L 512.023438 807.890625 L 453.121094 807.890625 L 453.121094 835.695312 L 508.507812 835.695312 L 508.507812 844.160156 L 453.121094 844.160156 L 453.121094 874.273438 Z M 513.234375 874.273438 "/>
<path style=" stroke:none;fill-rule:nonzero;fill:rgb(39.610291%,38.511658%,38.78479%);fill-opacity:1;" d="M 546.425781 840.753906 L 580.496094 840.753906 C 591.371094 840.753906 598.628906 834.160156 598.628906 824.378906 C 598.628906 814.488281 591.265625 807.890625 580.496094 807.890625 L 546.425781 807.890625 Z M 610.933594 881.855469 L 610.933594 882.84375 L 600.164062 882.84375 L 581.703125 849.324219 L 546.425781 849.324219 L 546.425781 882.84375 L 536.535156 882.84375 L 536.535156 799.320312 L 581.042969 799.320312 C 597.855469 799.320312 609.066406 809.324219 609.066406 824.378906 C 609.066406 835.808594 602.363281 844.378906 591.59375 847.785156 Z M 610.933594 881.855469 "/>
<g clip-path="url(#clip3)" clip-rule="nonzero">
<path style=" stroke:none;fill-rule:nonzero;fill:rgb(39.610291%,38.511658%,38.78479%);fill-opacity:1;" d="M 628.082031 840.972656 C 628.082031 815.367188 645.667969 798.222656 671.824219 798.222656 C 682.8125 798.222656 694.679688 802.289062 701.824219 808.441406 L 701.824219 818.554688 C 694.789062 811.628906 683.472656 807.125 673.472656 807.125 C 652.480469 807.125 638.414062 820.640625 638.414062 841.082031 C 638.414062 861.414062 652.480469 875.039062 673.582031 875.039062 C 683.691406 875.039062 695.449219 870.203125 702.921875 862.84375 L 702.921875 873.171875 C 695.449219 879.65625 683.03125 883.941406 671.824219 883.941406 C 645.558594 883.941406 628.082031 866.796875 628.082031 840.972656 "/>
</g>
<g clip-path="url(#clip4)" clip-rule="nonzero">
<path style=" stroke:none;fill-rule:nonzero;fill:rgb(39.610291%,38.511658%,38.78479%);fill-opacity:1;" d="M 795.789062 874.273438 L 795.789062 882.84375 L 725.785156 882.84375 L 725.785156 799.320312 L 794.582031 799.320312 L 794.582031 807.890625 L 735.675781 807.890625 L 735.675781 835.695312 L 791.0625 835.695312 L 791.0625 844.160156 L 735.675781 844.160156 L 735.675781 874.273438 Z M 795.789062 874.273438 "/>
</g>
<path style=" stroke:none;fill-rule:nonzero;fill:rgb(39.610291%,38.511658%,38.78479%);fill-opacity:1;" d="M 756.097656 735.628906 C 756.097656 727.773438 750.832031 722.507812 742.9375 722.507812 C 735.082031 722.507812 729.816406 727.773438 729.816406 735.628906 C 729.816406 743.480469 735.082031 748.746094 742.9375 748.746094 C 750.832031 748.746094 756.097656 743.480469 756.097656 735.628906 M 725.785156 735.628906 C 725.785156 725.691406 732.660156 719.070312 742.9375 719.070312 C 753.253906 719.070312 760.089844 725.691406 760.089844 735.628906 C 760.089844 745.5625 753.253906 752.183594 742.9375 752.183594 C 732.660156 752.183594 725.785156 745.5625 725.785156 735.628906 "/>
<g clip-path="url(#clip5)" clip-rule="nonzero">
<path style=" stroke:none;fill-rule:nonzero;fill:rgb(39.610291%,38.511658%,38.78479%);fill-opacity:1;" d="M 773.117188 722.804688 L 773.117188 733.675781 L 794.003906 733.675781 L 794.003906 736.984375 L 773.117188 736.984375 L 773.117188 751.761719 L 769.296875 751.761719 L 769.296875 719.492188 L 795.789062 719.492188 L 795.789062 722.804688 Z M 773.117188 722.804688 "/>
</g>
<path style=" stroke:none;fill-rule:nonzero;fill:rgb(39.610291%,38.511658%,38.78479%);fill-opacity:1;" d="M 0 736.066406 C 0 710.460938 17.582031 693.316406 43.738281 693.316406 C 54.726562 693.316406 66.597656 697.382812 73.742188 703.535156 L 73.742188 713.648438 C 66.707031 706.722656 55.386719 702.21875 45.386719 702.21875 C 24.398438 702.21875 10.332031 715.734375 10.332031 736.175781 C 10.332031 756.507812 24.398438 770.132812 45.496094 770.132812 C 55.609375 770.132812 67.367188 765.300781 74.839844 757.9375 L 74.839844 768.265625 C 67.367188 774.75 54.949219 779.035156 43.738281 779.035156 C 17.472656 779.035156 0 761.890625 0 736.066406 "/>
<path style=" stroke:none;fill-rule:nonzero;fill:rgb(39.610291%,38.511658%,38.78479%);fill-opacity:1;" d="M 174.738281 694.414062 L 174.738281 777.9375 L 164.847656 777.9375 L 164.847656 739.253906 L 107.589844 739.253906 L 107.589844 777.9375 L 97.699219 777.9375 L 97.699219 694.414062 L 107.589844 694.414062 L 107.589844 730.789062 L 164.847656 730.789062 L 164.847656 694.414062 Z M 174.738281 694.414062 "/>
<path style=" stroke:none;fill-rule:nonzero;fill:rgb(39.610291%,38.511658%,38.78479%);fill-opacity:1;" d="M 257.605469 746.726562 L 237.824219 705.625 L 218.042969 746.726562 Z M 283.320312 776.949219 L 283.320312 777.9375 L 272.660156 777.9375 L 261.78125 755.300781 L 213.867188 755.300781 L 202.984375 777.9375 L 192.324219 777.9375 L 192.324219 776.949219 L 233.425781 694.414062 L 242.328125 694.414062 Z M 283.320312 776.949219 "/>
<path style=" stroke:none;fill-rule:nonzero;fill:rgb(39.610291%,38.511658%,38.78479%);fill-opacity:1;" d="M 391.242188 694.414062 L 391.242188 777.9375 L 381.570312 777.9375 L 381.570312 709.140625 L 346.625 752.222656 L 345.636719 752.222656 L 310.6875 709.03125 L 310.6875 777.9375 L 301.015625 777.9375 L 301.015625 694.414062 L 310.6875 694.414062 L 346.183594 738.375 L 381.570312 694.414062 Z M 391.242188 694.414062 "/>
<path style=" stroke:none;fill-rule:nonzero;fill:rgb(39.610291%,38.511658%,38.78479%);fill-opacity:1;" d="M 486.746094 754.089844 C 486.746094 744.96875 479.933594 738.921875 469.710938 738.921875 L 430.371094 738.921875 L 430.371094 769.367188 L 469.710938 769.367188 C 479.933594 769.367188 486.746094 763.320312 486.746094 754.089844 M 430.371094 731.121094 L 466.304688 731.121094 C 475.757812 731.121094 482.023438 725.515625 482.023438 717.054688 C 482.023438 708.59375 475.757812 702.988281 466.304688 702.988281 L 430.371094 702.988281 Z M 497.078125 754.75 C 497.078125 768.707031 486.417969 777.9375 470.261719 777.9375 L 420.480469 777.9375 L 420.480469 694.414062 L 466.855469 694.414062 C 482.132812 694.414062 492.351562 702.988281 492.351562 715.847656 C 492.351562 723.867188 487.957031 730.132812 480.59375 733.429688 C 490.8125 736.503906 497.078125 744.308594 497.078125 754.75 "/>
<path style=" stroke:none;fill-rule:nonzero;fill:rgb(39.610291%,38.511658%,38.78479%);fill-opacity:1;" d="M 590.714844 769.367188 L 590.714844 777.9375 L 520.707031 777.9375 L 520.707031 694.414062 L 589.503906 694.414062 L 589.503906 702.988281 L 530.601562 702.988281 L 530.601562 730.792969 L 585.988281 730.792969 L 585.988281 739.253906 L 530.601562 739.253906 L 530.601562 769.367188 Z M 590.714844 769.367188 "/>
<path style=" stroke:none;fill-rule:nonzero;fill:rgb(39.610291%,38.511658%,38.78479%);fill-opacity:1;" d="M 623.90625 735.847656 L 657.976562 735.847656 C 668.851562 735.847656 676.109375 729.253906 676.109375 719.472656 C 676.109375 709.582031 668.746094 702.988281 657.976562 702.988281 L 623.90625 702.988281 Z M 688.417969 776.949219 L 688.417969 777.9375 L 677.648438 777.9375 L 659.183594 744.417969 L 623.90625 744.417969 L 623.90625 777.9375 L 614.015625 777.9375 L 614.015625 694.414062 L 658.523438 694.414062 C 675.339844 694.414062 686.546875 704.417969 686.546875 719.472656 C 686.546875 730.902344 679.84375 739.472656 669.074219 742.878906 Z M 688.417969 776.949219 "/>
<g clip-path="url(#clip6)" clip-rule="nonzero">
<path style=" stroke:none;fill-rule:nonzero;fill:rgb(96.430969%,62.19635%,24.511719%);fill-opacity:1;" d="M 725.785156 769.367188 L 795.789062 769.367188 L 795.789062 777.9375 L 725.785156 777.9375 Z M 725.785156 769.367188 "/>
</g>
<path style=" stroke:none;fill-rule:nonzero;fill:rgb(25.735474%,73.277283%,70.150757%);fill-opacity:1;" d="M 66.839844 630.5 L 53.496094 598.703125 L 40.027344 630.5 Z M 106.867188 664.917969 L 106.867188 667.164062 L 82.425781 667.164062 L 75.195312 649.953125 L 31.675781 649.953125 L 24.441406 667.164062 L 0 667.164062 L 0 664.917969 L 43.394531 572.390625 L 63.472656 572.390625 Z M 106.867188 664.917969 "/>
<path style=" stroke:none;fill-rule:nonzero;fill:rgb(25.735474%,73.277283%,70.150757%);fill-opacity:1;" d="M 212.855469 572.390625 L 212.855469 667.164062 L 190.65625 667.164062 L 142.523438 605.9375 L 142.523438 667.164062 L 120.328125 667.164062 L 120.328125 572.390625 L 142.523438 572.390625 L 190.65625 633.617188 L 190.65625 572.390625 Z M 212.855469 572.390625 "/>
<path style=" stroke:none;fill-rule:nonzero;fill:rgb(25.735474%,73.277283%,70.150757%);fill-opacity:1;" d="M 327.070312 608.929688 L 327.070312 658.683594 C 317.59375 664.542969 301.132812 668.410156 286.046875 668.410156 C 253.871094 668.410156 232.546875 648.832031 232.546875 619.402344 C 232.546875 590.472656 253.871094 571.144531 286.046875 571.144531 C 301.257812 571.144531 316.722656 575.132812 325.824219 581.371094 L 325.824219 604.066406 C 317.34375 596.582031 303.253906 591.59375 290.535156 591.59375 C 269.957031 591.59375 256.242188 602.820312 256.242188 619.652344 C 256.242188 636.609375 269.710938 647.960938 289.785156 647.960938 C 294.398438 647.960938 299.386719 647.085938 304.25 645.714844 L 304.25 628.507812 L 281.058594 628.507812 L 281.058594 608.929688 Z M 327.070312 608.929688 "/>
<path style=" stroke:none;fill-rule:nonzero;fill:rgb(25.735474%,73.277283%,70.150757%);fill-opacity:1;" d="M 349.261719 627.882812 L 349.261719 572.390625 L 372.082031 572.390625 L 372.082031 626.761719 C 372.082031 639.480469 381.308594 647.957031 395.027344 647.957031 C 408.742188 647.957031 417.972656 639.480469 417.972656 626.761719 L 417.972656 572.390625 L 440.789062 572.390625 L 440.789062 627.882812 C 440.789062 652.199219 422.585938 668.410156 395.027344 668.410156 C 367.46875 668.410156 349.261719 652.199219 349.261719 627.882812 "/>
<path style=" stroke:none;fill-rule:nonzero;fill:rgb(25.735474%,73.277283%,70.150757%);fill-opacity:1;" d="M 464.601562 572.390625 L 487.421875 572.390625 L 487.421875 667.164062 L 464.601562 667.164062 Z M 464.601562 572.390625 "/>
<path style=" stroke:none;fill-rule:nonzero;fill:rgb(25.735474%,73.277283%,70.150757%);fill-opacity:1;" d="M 590.046875 647.585938 L 590.046875 667.164062 L 512.484375 667.164062 L 512.484375 572.390625 L 535.300781 572.390625 L 535.300781 647.585938 Z M 590.046875 647.585938 "/>
<path style=" stroke:none;fill-rule:nonzero;fill:rgb(25.735474%,73.277283%,70.150757%);fill-opacity:1;" d="M 683.566406 647.585938 L 683.566406 667.164062 L 606.003906 667.164062 L 606.003906 572.390625 L 628.820312 572.390625 L 628.820312 647.585938 Z M 683.566406 647.585938 "/>
<g clip-path="url(#clip7)" clip-rule="nonzero">
<path style=" stroke:none;fill-rule:nonzero;fill:rgb(25.735474%,73.277283%,70.150757%);fill-opacity:1;" d="M 755.761719 630.5 L 742.417969 598.703125 L 728.949219 630.5 Z M 795.789062 664.917969 L 795.789062 667.164062 L 771.347656 667.164062 L 764.113281 649.953125 L 720.59375 649.953125 L 713.359375 667.164062 L 688.921875 667.164062 L 688.921875 664.917969 L 732.316406 572.390625 L 752.390625 572.390625 Z M 795.789062 664.917969 "/>
</g>
<g clip-path="url(#clip8)" clip-rule="nonzero">
<path style=" stroke:none;fill-rule:nonzero;fill:rgb(25.735474%,73.277283%,70.150757%);fill-opacity:1;" d="M 516.992188 376.246094 C 516.339844 376.769531 515.679688 377.285156 515.015625 377.796875 C 513.410156 379.039062 511.78125 380.257812 510.136719 381.453125 C 509.125 382.183594 508.105469 382.90625 507.078125 383.621094 C 503.464844 386.132812 499.761719 388.527344 495.96875 390.792969 C 467.28125 407.929688 433.742188 417.789062 397.894531 417.789062 C 349.96875 417.789062 306.15625 400.1875 272.566406 371.089844 C 269.09375 368.082031 265.726562 364.945312 262.480469 361.699219 C 260.3125 359.53125 258.199219 357.316406 256.136719 355.046875 C 255.105469 353.914062 254.089844 352.769531 253.085938 351.609375 C 249.074219 346.976562 245.277344 342.152344 241.71875 337.144531 C 239.605469 334.171875 237.582031 331.128906 235.640625 328.03125 C 234.308594 325.914062 233.007812 323.777344 231.761719 321.605469 C 229.835938 318.261719 228.023438 314.84375 226.300781 311.375 C 224.378906 307.511719 222.585938 303.578125 220.925781 299.574219 C 219.90625 297.117188 218.925781 294.636719 218.007812 292.128906 C 216.398438 287.730469 214.941406 283.253906 213.652344 278.710938 C 210.601562 267.972656 208.46875 256.851562 207.335938 245.433594 C 207.050781 242.546875 206.828125 239.640625 206.671875 236.71875 C 206.488281 233.261719 206.386719 229.785156 206.386719 226.285156 C 206.386719 120.515625 292.128906 34.777344 397.894531 34.777344 C 503.660156 34.777344 589.402344 120.515625 589.402344 226.285156 C 589.402344 287.03125 561.113281 341.164062 516.992188 376.246094 M 606.292969 138.230469 C 594.898438 111.292969 578.59375 87.105469 557.832031 66.34375 C 537.070312 45.585938 512.886719 29.28125 485.949219 17.886719 C 458.039062 6.082031 428.414062 0.0976562 397.894531 0.0976562 C 367.375 0.0976562 337.75 6.082031 309.839844 17.886719 C 282.902344 29.28125 258.71875 45.585938 237.957031 66.34375 C 217.195312 87.105469 200.890625 111.292969 189.496094 138.230469 C 177.691406 166.136719 171.707031 195.765625 171.707031 226.285156 C 171.707031 256.804688 177.691406 286.429688 189.496094 314.335938 C 200.890625 341.273438 217.195312 365.460938 237.957031 386.222656 C 258.71875 406.984375 282.902344 423.285156 309.839844 434.683594 C 337.75 446.484375 367.375 452.46875 397.894531 452.46875 C 428.414062 452.46875 458.039062 446.484375 485.949219 434.683594 C 512.886719 423.285156 537.070312 406.984375 557.832031 386.222656 C 578.59375 365.460938 594.898438 341.273438 606.292969 314.335938 C 618.097656 286.429688 624.082031 256.804688 624.082031 226.285156 C 624.082031 195.765625 618.097656 166.136719 606.292969 138.230469 "/>
</g>
<path style=" stroke:none;fill-rule:nonzero;fill:rgb(28.486633%,65.959167%,87.861633%);fill-opacity:1;" d="M 394.09375 51.40625 C 393.664062 51.273438 393.230469 51.140625 392.796875 51.011719 C 364.574219 114.261719 336.351562 177.519531 307.65625 241.832031 C 340.277344 246.230469 368.492188 256.96875 394.09375 267.707031 Z M 394.09375 51.40625 "/>
<path style=" stroke:none;fill-rule:nonzero;fill:rgb(96.430969%,62.19635%,24.511719%);fill-opacity:1;" d="M 227.078125 172.964844 C 244.042969 168.664062 262.226562 165.765625 281.960938 165.414062 L 282.050781 165.410156 L 282.140625 165.414062 C 298.859375 165.710938 314.46875 167.839844 329.164062 171.097656 L 384.738281 46.539062 C 310.117188 52.394531 248.300781 103.796875 227.078125 172.964844 "/>
<path style=" stroke:none;fill-rule:nonzero;fill:rgb(96.430969%,62.19635%,24.511719%);fill-opacity:1;" d="M 404.089844 98.84375 L 436.882812 211.453125 C 456.472656 218.792969 475.84375 224.109375 495.976562 224.109375 C 525.171875 224.109375 550.355469 214.152344 576.121094 202.40625 C 564.730469 116.351562 492.480469 49.511719 404.035156 46.542969 L 404.089844 51.40625 Z M 404.089844 98.84375 "/>
<path style=" stroke:none;fill-rule:nonzero;fill:rgb(61.500549%,87.04834%,85.957336%);fill-opacity:1;" d="M 280.957031 175.855469 C 259.847656 176.242188 240.789062 179.566406 222.976562 184.480469 C 219.792969 197.878906 218.09375 211.851562 218.09375 226.226562 C 218.09375 229.511719 218.191406 232.78125 218.363281 236.023438 C 218.511719 238.769531 218.71875 241.496094 218.988281 244.207031 C 219.148438 245.832031 219.339844 247.449219 219.542969 249.0625 C 238.328125 243.828125 258.613281 240.195312 280.867188 239.796875 L 281.046875 239.796875 C 286.5625 239.894531 291.949219 240.203125 297.230469 240.671875 L 323.933594 180.816406 C 310.480469 177.960938 296.257812 176.136719 280.957031 175.855469 "/>
<path style=" stroke:none;fill-rule:nonzero;fill:rgb(61.500549%,87.04834%,85.957336%);fill-opacity:1;" d="M 577.199219 212.890625 C 551.46875 224.496094 526.03125 234.105469 495.976562 234.105469 C 476.746094 234.105469 458.519531 229.707031 440.347656 223.347656 L 460.65625 293.09375 C 472.296875 296.160156 484.003906 298.046875 495.976562 298.046875 C 522.757812 298.046875 546.164062 289.664062 569.738281 279.214844 C 574.898438 262.460938 577.695312 244.671875 577.695312 226.226562 C 577.695312 221.738281 577.523438 217.296875 577.199219 212.890625 "/>
<path style=" stroke:none;fill-rule:nonzero;fill:rgb(28.486633%,65.959167%,87.861633%);fill-opacity:1;" d="M 449.269531 289.730469 C 434.777344 239.972656 420.621094 191.351562 406.460938 142.738281 C 405.976562 142.882812 405.488281 143.03125 405.003906 143.179688 C 405.003906 185.234375 404.992188 227.289062 405.03125 269.34375 C 405.03125 270.296875 404.929688 271.308594 404.925781 272.292969 C 405.257812 272.433594 405.59375 272.578125 405.925781 272.71875 C 420.636719 278.992188 434.957031 285.089844 449.269531 289.730469 "/>
<path style=" stroke:none;fill-rule:nonzero;fill:rgb(40.301514%,80.149841%,82.611084%);fill-opacity:1;" d="M 280.957031 313.734375 L 281.046875 313.734375 C 330.777344 314.625 370.699219 331.644531 405.925781 346.65625 C 436.480469 359.679688 465.34375 371.984375 495.976562 371.984375 C 498.507812 371.984375 501.003906 371.898438 503.476562 371.753906 C 504.953125 370.683594 506.414062 369.59375 507.855469 368.476562 C 508.480469 367.996094 509.097656 367.511719 509.710938 367.023438 C 534.261719 347.5 553.585938 321.695312 565.257812 292.042969 C 543.488281 301.175781 521.382812 308.042969 495.976562 308.042969 C 463.304688 308.042969 433.527344 295.351562 402.003906 281.914062 C 365.964844 266.550781 328.699219 250.667969 280.957031 249.792969 C 259.097656 250.191406 239.433594 253.746094 221.078125 258.949219 C 222.105469 264.542969 223.382812 270.050781 224.914062 275.449219 C 226.128906 279.714844 227.492188 283.917969 229.003906 288.046875 C 229.867188 290.398438 230.785156 292.726562 231.742188 295.035156 C 233.304688 298.796875 234.988281 302.488281 236.789062 306.117188 C 238.40625 309.371094 240.109375 312.582031 241.917969 315.722656 C 242.273438 316.339844 242.640625 316.953125 243.003906 317.566406 C 254.992188 315.371094 267.578125 313.972656 280.867188 313.734375 Z M 280.957031 313.734375 "/>
<path style=" stroke:none;fill-rule:nonzero;fill:rgb(25.735474%,73.277283%,70.150757%);fill-opacity:1;" d="M 280.957031 323.730469 C 269.679688 323.9375 258.992188 324.988281 248.757812 326.664062 C 249.582031 327.890625 250.414062 329.109375 251.265625 330.308594 C 254.609375 335.007812 258.171875 339.539062 261.9375 343.890625 C 262.882812 344.980469 263.835938 346.054688 264.804688 347.117188 C 266.738281 349.246094 268.722656 351.328125 270.757812 353.363281 C 273.808594 356.414062 276.96875 359.355469 280.230469 362.179688 C 311.761719 389.496094 352.898438 406.023438 397.894531 406.023438 C 430.792969 406.023438 461.613281 397.160156 488.144531 381.730469 C 458.5 379.921875 430.992188 368.207031 402.003906 355.851562 C 365.964844 340.488281 328.699219 324.601562 280.957031 323.730469 "/>
</g>
</svg>
