<?xml version="1.0" encoding="UTF-8"?>
<svg xmlns="http://www.w3.org/2000/svg" xmlns:xlink="http://www.w3.org/1999/xlink" width="796.394pt" height="884.519pt" viewBox="0 0 796.394 884.519" version="1.2">
<defs>
<clipPath id="clip1">
  <path d="M 725 797 L 795.789062 797 L 795.789062 882 L 725 882 Z M 725 797 "/>
</clipPath>
<clipPath id="clip2">
  <path d="M 769 718 L 795.789062 718 L 795.789062 751 L 769 751 Z M 769 718 "/>
</clipPath>
<clipPath id="clip3">
  <path d="M 725 768 L 795.789062 768 L 795.789062 777 L 725 777 Z M 725 768 "/>
</clipPath>
<clipPath id="clip4">
  <path d="M 688 571 L 795.789062 571 L 795.789062 666 L 688 666 Z M 688 571 "/>
</clipPath>
<clipPath id="clip5">
  <path d="M 171 0.0976562 L 625 0.0976562 L 625 453 L 171 453 Z M 171 0.0976562 "/>
</clipPath>
</defs>
<g id="surface1">
<path style=" stroke:none;fill-rule:nonzero;fill:rgb(100%,100%,100%);fill-opacity:1;" d="M 0 839.648438 C 0 814.042969 17.582031 796.898438 43.738281 796.898438 C 54.726562 796.898438 66.597656 800.964844 73.742188 807.117188 L 73.742188 817.230469 C 66.707031 810.304688 55.386719 805.800781 45.386719 805.800781 C 24.398438 805.800781 10.328125 819.316406 10.328125 839.757812 C 10.328125 860.089844 24.398438 873.71875 45.496094 873.71875 C 55.609375 873.71875 67.367188 868.882812 74.839844 861.519531 L 74.839844 871.851562 C 67.367188 878.332031 54.949219 882.617188 43.738281 882.617188 C 17.472656 882.617188 0 865.476562 0 839.648438 "/>
<path style=" stroke:none;fill-rule:nonzero;fill:rgb(100%,100%,100%);fill-opacity:1;" d="M 170.125 839.757812 C 170.125 819.429688 156.496094 805.800781 136.054688 805.800781 C 115.722656 805.800781 102.097656 819.429688 102.097656 839.757812 C 102.097656 860.089844 115.722656 873.71875 136.054688 873.71875 C 156.496094 873.71875 170.125 860.089844 170.125 839.757812 M 91.65625 839.757812 C 91.65625 814.042969 109.460938 796.898438 136.054688 796.898438 C 162.757812 796.898438 180.453125 814.042969 180.453125 839.757812 C 180.453125 865.472656 162.757812 882.621094 136.054688 882.621094 C 109.460938 882.621094 91.65625 865.472656 91.65625 839.757812 "/>
<path style=" stroke:none;fill-rule:nonzero;fill:rgb(100%,100%,100%);fill-opacity:1;" d="M 294.53125 797.996094 L 294.53125 881.519531 L 284.859375 881.519531 L 284.859375 812.726562 L 249.914062 855.804688 L 248.921875 855.804688 L 213.976562 812.613281 L 213.976562 881.519531 L 204.304688 881.519531 L 204.304688 797.996094 L 213.976562 797.996094 L 249.472656 841.957031 L 284.859375 797.996094 Z M 294.53125 797.996094 "/>
<path style=" stroke:none;fill-rule:nonzero;fill:rgb(100%,100%,100%);fill-opacity:1;" d="M 413.992188 797.996094 L 413.992188 881.519531 L 404.320312 881.519531 L 404.320312 812.726562 L 369.375 855.804688 L 368.382812 855.804688 L 333.4375 812.613281 L 333.4375 881.519531 L 323.765625 881.519531 L 323.765625 797.996094 L 333.4375 797.996094 L 368.933594 841.957031 L 404.320312 797.996094 Z M 413.992188 797.996094 "/>
<path style=" stroke:none;fill-rule:nonzero;fill:rgb(100%,100%,100%);fill-opacity:1;" d="M 513.234375 872.949219 L 513.234375 881.519531 L 443.226562 881.519531 L 443.226562 797.996094 L 512.023438 797.996094 L 512.023438 806.570312 L 453.121094 806.570312 L 453.121094 834.375 L 508.507812 834.375 L 508.507812 842.835938 L 453.121094 842.835938 L 453.121094 872.949219 Z M 513.234375 872.949219 "/>
<path style=" stroke:none;fill-rule:nonzero;fill:rgb(100%,100%,100%);fill-opacity:1;" d="M 546.425781 839.429688 L 580.496094 839.429688 C 591.371094 839.429688 598.628906 832.835938 598.628906 823.054688 C 598.628906 813.164062 591.265625 806.570312 580.496094 806.570312 L 546.425781 806.570312 Z M 610.933594 880.53125 L 610.933594 881.519531 L 600.164062 881.519531 L 581.703125 848 L 546.425781 848 L 546.425781 881.519531 L 536.535156 881.519531 L 536.535156 797.996094 L 581.042969 797.996094 C 597.855469 797.996094 609.066406 808 609.066406 823.054688 C 609.066406 834.484375 602.363281 843.054688 591.59375 846.464844 Z M 610.933594 880.53125 "/>
<path style=" stroke:none;fill-rule:nonzero;fill:rgb(100%,100%,100%);fill-opacity:1;" d="M 628.082031 839.648438 C 628.082031 814.042969 645.667969 796.898438 671.824219 796.898438 C 682.8125 796.898438 694.679688 800.964844 701.824219 807.117188 L 701.824219 817.230469 C 694.789062 810.304688 683.472656 805.800781 673.472656 805.800781 C 652.480469 805.800781 638.414062 819.316406 638.414062 839.757812 C 638.414062 860.089844 652.480469 873.71875 673.582031 873.71875 C 683.691406 873.71875 695.449219 868.882812 702.921875 861.519531 L 702.921875 871.851562 C 695.449219 878.332031 683.03125 882.617188 671.824219 882.617188 C 645.558594 882.617188 628.082031 865.476562 628.082031 839.648438 "/>
<g clip-path="url(#clip1)" clip-rule="nonzero">
<path style=" stroke:none;fill-rule:nonzero;fill:rgb(100%,100%,100%);fill-opacity:1;" d="M 795.789062 872.949219 L 795.789062 881.519531 L 725.785156 881.519531 L 725.785156 797.996094 L 794.582031 797.996094 L 794.582031 806.570312 L 735.675781 806.570312 L 735.675781 834.375 L 791.0625 834.375 L 791.0625 842.835938 L 735.675781 842.835938 L 735.675781 872.949219 Z M 795.789062 872.949219 "/>
</g>
<path style=" stroke:none;fill-rule:nonzero;fill:rgb(100%,100%,100%);fill-opacity:1;" d="M 756.097656 734.304688 C 756.097656 726.449219 750.832031 721.183594 742.9375 721.183594 C 735.082031 721.183594 729.816406 726.449219 729.816406 734.304688 C 729.816406 742.15625 735.082031 747.421875 742.9375 747.421875 C 750.832031 747.421875 756.097656 742.15625 756.097656 734.304688 M 725.785156 734.304688 C 725.785156 724.371094 732.660156 717.746094 742.9375 717.746094 C 753.253906 717.746094 760.089844 724.371094 760.089844 734.304688 C 760.089844 744.238281 753.253906 750.859375 742.9375 750.859375 C 732.660156 750.859375 725.785156 744.238281 725.785156 734.304688 "/>
<g clip-path="url(#clip2)" clip-rule="nonzero">
<path style=" stroke:none;fill-rule:nonzero;fill:rgb(100%,100%,100%);fill-opacity:1;" d="M 773.117188 721.484375 L 773.117188 732.351562 L 794.003906 732.351562 L 794.003906 735.660156 L 773.117188 735.660156 L 773.117188 750.4375 L 769.296875 750.4375 L 769.296875 718.171875 L 795.789062 718.171875 L 795.789062 721.484375 Z M 773.117188 721.484375 "/>
</g>
<path style=" stroke:none;fill-rule:nonzero;fill:rgb(100%,100%,100%);fill-opacity:1;" d="M 0 734.742188 C 0 709.136719 17.582031 691.992188 43.738281 691.992188 C 54.726562 691.992188 66.597656 696.058594 73.742188 702.214844 L 73.742188 712.324219 C 66.707031 705.402344 55.386719 700.894531 45.386719 700.894531 C 24.398438 700.894531 10.328125 714.414062 10.328125 734.851562 C 10.328125 755.183594 24.398438 768.8125 45.496094 768.8125 C 55.609375 768.8125 67.367188 763.976562 74.839844 756.613281 L 74.839844 766.945312 C 67.367188 773.429688 54.949219 777.714844 43.738281 777.714844 C 17.472656 777.714844 0 760.570312 0 734.742188 "/>
<path style=" stroke:none;fill-rule:nonzero;fill:rgb(100%,100%,100%);fill-opacity:1;" d="M 174.738281 693.09375 L 174.738281 776.613281 L 164.847656 776.613281 L 164.847656 737.929688 L 107.589844 737.929688 L 107.589844 776.613281 L 97.699219 776.613281 L 97.699219 693.09375 L 107.589844 693.09375 L 107.589844 729.46875 L 164.847656 729.46875 L 164.847656 693.09375 Z M 174.738281 693.09375 "/>
<path style=" stroke:none;fill-rule:nonzero;fill:rgb(100%,100%,100%);fill-opacity:1;" d="M 257.605469 745.402344 L 237.824219 704.300781 L 218.042969 745.402344 Z M 283.320312 775.625 L 283.320312 776.613281 L 272.660156 776.613281 L 261.78125 753.976562 L 213.867188 753.976562 L 202.984375 776.613281 L 192.324219 776.613281 L 192.324219 775.625 L 233.425781 693.09375 L 242.328125 693.09375 Z M 283.320312 775.625 "/>
<path style=" stroke:none;fill-rule:nonzero;fill:rgb(100%,100%,100%);fill-opacity:1;" d="M 391.242188 693.09375 L 391.242188 776.613281 L 381.570312 776.613281 L 381.570312 707.816406 L 346.625 750.898438 L 345.636719 750.898438 L 310.6875 707.710938 L 310.6875 776.613281 L 301.015625 776.613281 L 301.015625 693.09375 L 310.6875 693.09375 L 346.183594 737.050781 L 381.570312 693.09375 Z M 391.242188 693.09375 "/>
<path style=" stroke:none;fill-rule:nonzero;fill:rgb(100%,100%,100%);fill-opacity:1;" d="M 486.746094 752.765625 C 486.746094 743.644531 479.933594 737.601562 469.710938 737.601562 L 430.371094 737.601562 L 430.371094 768.042969 L 469.710938 768.042969 C 479.933594 768.042969 486.746094 762 486.746094 752.765625 M 430.371094 729.796875 L 466.304688 729.796875 C 475.757812 729.796875 482.023438 724.195312 482.023438 715.730469 C 482.023438 707.269531 475.757812 701.664062 466.304688 701.664062 L 430.371094 701.664062 Z M 497.078125 753.425781 C 497.078125 767.382812 486.417969 776.613281 470.261719 776.613281 L 420.480469 776.613281 L 420.480469 693.09375 L 466.855469 693.09375 C 482.132812 693.09375 492.351562 701.664062 492.351562 714.523438 C 492.351562 722.546875 487.957031 728.808594 480.59375 732.105469 C 490.8125 735.183594 497.078125 742.984375 497.078125 753.425781 "/>
<path style=" stroke:none;fill-rule:nonzero;fill:rgb(100%,100%,100%);fill-opacity:1;" d="M 590.714844 768.042969 L 590.714844 776.613281 L 520.707031 776.613281 L 520.707031 693.09375 L 589.503906 693.09375 L 589.503906 701.664062 L 530.601562 701.664062 L 530.601562 729.46875 L 585.988281 729.46875 L 585.988281 737.929688 L 530.601562 737.929688 L 530.601562 768.042969 Z M 590.714844 768.042969 "/>
<path style=" stroke:none;fill-rule:nonzero;fill:rgb(100%,100%,100%);fill-opacity:1;" d="M 623.90625 734.523438 L 657.976562 734.523438 C 668.851562 734.523438 676.109375 727.929688 676.109375 718.148438 C 676.109375 708.257812 668.746094 701.664062 657.976562 701.664062 L 623.90625 701.664062 Z M 688.417969 775.625 L 688.417969 776.613281 L 677.648438 776.613281 L 659.183594 743.097656 L 623.90625 743.097656 L 623.90625 776.613281 L 614.015625 776.613281 L 614.015625 693.09375 L 658.523438 693.09375 C 675.339844 693.09375 686.546875 703.09375 686.546875 718.148438 C 686.546875 729.578125 679.84375 738.152344 669.074219 741.558594 Z M 688.417969 775.625 "/>
<g clip-path="url(#clip3)" clip-rule="nonzero">
<path style=" stroke:none;fill-rule:nonzero;fill:rgb(100%,100%,100%);fill-opacity:1;" d="M 725.785156 768.042969 L 795.789062 768.042969 L 795.789062 776.613281 L 725.785156 776.613281 Z M 725.785156 768.042969 "/>
</g>
<path style=" stroke:none;fill-rule:nonzero;fill:rgb(100%,100%,100%);fill-opacity:1;" d="M 66.839844 629.179688 L 53.496094 597.378906 L 40.027344 629.179688 Z M 106.867188 663.59375 L 106.867188 665.839844 L 82.425781 665.839844 L 75.195312 648.632812 L 31.675781 648.632812 L 24.441406 665.839844 L 0 665.839844 L 0 663.59375 L 43.394531 571.070312 L 63.472656 571.070312 Z M 106.867188 663.59375 "/>
<path style=" stroke:none;fill-rule:nonzero;fill:rgb(100%,100%,100%);fill-opacity:1;" d="M 212.855469 571.066406 L 212.855469 665.839844 L 190.65625 665.839844 L 142.523438 604.613281 L 142.523438 665.839844 L 120.328125 665.839844 L 120.328125 571.066406 L 142.523438 571.066406 L 190.65625 632.296875 L 190.65625 571.066406 Z M 212.855469 571.066406 "/>
<path style=" stroke:none;fill-rule:nonzero;fill:rgb(100%,100%,100%);fill-opacity:1;" d="M 327.070312 607.605469 L 327.070312 657.359375 C 317.59375 663.222656 301.132812 667.085938 286.042969 667.085938 C 253.871094 667.085938 232.546875 647.507812 232.546875 618.078125 C 232.546875 589.148438 253.871094 569.820312 286.042969 569.820312 C 301.257812 569.820312 316.722656 573.8125 325.824219 580.046875 L 325.824219 602.742188 C 317.34375 595.261719 303.253906 590.273438 290.535156 590.273438 C 269.957031 590.273438 256.242188 601.496094 256.242188 618.328125 C 256.242188 635.289062 269.710938 646.636719 289.785156 646.636719 C 294.398438 646.636719 299.386719 645.761719 304.25 644.390625 L 304.25 627.183594 L 281.054688 627.183594 L 281.054688 607.605469 Z M 327.070312 607.605469 "/>
<path style=" stroke:none;fill-rule:nonzero;fill:rgb(100%,100%,100%);fill-opacity:1;" d="M 349.261719 626.558594 L 349.261719 571.066406 L 372.082031 571.066406 L 372.082031 625.4375 C 372.082031 638.15625 381.308594 646.636719 395.027344 646.636719 C 408.742188 646.636719 417.972656 638.15625 417.972656 625.4375 L 417.972656 571.066406 L 440.789062 571.066406 L 440.789062 626.558594 C 440.789062 650.875 422.585938 667.085938 395.027344 667.085938 C 367.46875 667.085938 349.261719 650.875 349.261719 626.558594 "/>
<path style=" stroke:none;fill-rule:nonzero;fill:rgb(100%,100%,100%);fill-opacity:1;" d="M 464.601562 571.070312 L 487.421875 571.070312 L 487.421875 665.839844 L 464.601562 665.839844 Z M 464.601562 571.070312 "/>
<path style=" stroke:none;fill-rule:nonzero;fill:rgb(100%,100%,100%);fill-opacity:1;" d="M 590.046875 646.261719 L 590.046875 665.839844 L 512.484375 665.839844 L 512.484375 571.066406 L 535.300781 571.066406 L 535.300781 646.261719 Z M 590.046875 646.261719 "/>
<path style=" stroke:none;fill-rule:nonzero;fill:rgb(100%,100%,100%);fill-opacity:1;" d="M 683.566406 646.261719 L 683.566406 665.839844 L 606.003906 665.839844 L 606.003906 571.066406 L 628.820312 571.066406 L 628.820312 646.261719 Z M 683.566406 646.261719 "/>
<g clip-path="url(#clip4)" clip-rule="nonzero">
<path style=" stroke:none;fill-rule:nonzero;fill:rgb(100%,100%,100%);fill-opacity:1;" d="M 755.761719 629.179688 L 742.417969 597.378906 L 728.949219 629.179688 Z M 795.789062 663.59375 L 795.789062 665.839844 L 771.347656 665.839844 L 764.113281 648.632812 L 720.59375 648.632812 L 713.359375 665.839844 L 688.921875 665.839844 L 688.921875 663.59375 L 732.316406 571.070312 L 752.390625 571.070312 Z M 795.789062 663.59375 "/>
</g>
<g clip-path="url(#clip5)" clip-rule="nonzero">
<path style=" stroke:none;fill-rule:nonzero;fill:rgb(100%,100%,100%);fill-opacity:1;" d="M 516.992188 376.246094 C 516.339844 376.769531 515.679688 377.285156 515.015625 377.796875 C 513.410156 379.039062 511.78125 380.257812 510.136719 381.453125 C 509.125 382.183594 508.105469 382.90625 507.078125 383.621094 C 503.464844 386.132812 499.761719 388.527344 495.96875 390.792969 C 467.28125 407.929688 433.742188 417.789062 397.894531 417.789062 C 349.96875 417.789062 306.15625 400.1875 272.566406 371.089844 C 269.09375 368.082031 265.726562 364.945312 262.480469 361.699219 C 260.3125 359.53125 258.199219 357.316406 256.136719 355.046875 C 255.105469 353.914062 254.089844 352.769531 253.085938 351.609375 C 249.074219 346.976562 245.277344 342.152344 241.71875 337.144531 C 239.605469 334.171875 237.582031 331.128906 235.640625 328.03125 C 234.308594 325.914062 233.007812 323.777344 231.761719 321.605469 C 229.835938 318.261719 228.023438 314.84375 226.296875 311.375 C 224.378906 307.511719 222.585938 303.578125 220.925781 299.574219 C 219.90625 297.117188 218.925781 294.636719 218.007812 292.128906 C 216.398438 287.730469 214.941406 283.253906 213.652344 278.710938 C 210.601562 267.972656 208.46875 256.851562 207.335938 245.433594 C 207.050781 242.546875 206.828125 239.640625 206.671875 236.71875 C 206.488281 233.261719 206.386719 229.785156 206.386719 226.285156 C 206.386719 120.515625 292.128906 34.777344 397.894531 34.777344 C 503.660156 34.777344 589.402344 120.515625 589.402344 226.285156 C 589.402344 287.03125 561.113281 341.164062 516.992188 376.246094 M 606.292969 138.230469 C 594.898438 111.292969 578.59375 87.105469 557.832031 66.34375 C 537.070312 45.585938 512.886719 29.28125 485.949219 17.886719 C 458.039062 6.082031 428.414062 0.0976562 397.894531 0.0976562 C 367.375 0.0976562 337.75 6.082031 309.839844 17.886719 C 282.902344 29.28125 258.71875 45.585938 237.957031 66.34375 C 217.195312 87.105469 200.890625 111.292969 189.496094 138.230469 C 177.691406 166.136719 171.707031 195.765625 171.707031 226.285156 C 171.707031 256.804688 177.691406 286.429688 189.496094 314.335938 C 200.890625 341.273438 217.195312 365.460938 237.957031 386.222656 C 258.71875 406.984375 282.902344 423.285156 309.839844 434.683594 C 337.75 446.484375 367.375 452.46875 397.894531 452.46875 C 428.414062 452.46875 458.039062 446.484375 485.949219 434.683594 C 512.886719 423.285156 537.070312 406.984375 557.832031 386.222656 C 578.59375 365.460938 594.898438 341.273438 606.292969 314.335938 C 618.097656 286.429688 624.082031 256.804688 624.082031 226.285156 C 624.082031 195.765625 618.097656 166.136719 606.292969 138.230469 "/>
</g>
<path style=" stroke:none;fill-rule:nonzero;fill:rgb(100%,100%,100%);fill-opacity:1;" d="M 394.09375 51.40625 C 393.664062 51.273438 393.230469 51.140625 392.796875 51.011719 C 364.574219 114.261719 336.351562 177.519531 307.65625 241.832031 C 340.277344 246.230469 368.492188 256.96875 394.09375 267.707031 Z M 394.09375 51.40625 "/>
<path style=" stroke:none;fill-rule:nonzero;fill:rgb(100%,100%,100%);fill-opacity:1;" d="M 227.078125 172.964844 C 244.042969 168.664062 262.226562 165.765625 281.960938 165.414062 L 282.050781 165.410156 L 282.140625 165.414062 C 298.859375 165.710938 314.46875 167.839844 329.164062 171.097656 L 384.738281 46.539062 C 310.117188 52.394531 248.300781 103.796875 227.078125 172.964844 "/>
<path style=" stroke:none;fill-rule:nonzero;fill:rgb(100%,100%,100%);fill-opacity:1;" d="M 404.089844 98.84375 L 436.882812 211.453125 C 456.472656 218.792969 475.84375 224.109375 495.976562 224.109375 C 525.171875 224.109375 550.355469 214.152344 576.121094 202.40625 C 564.730469 116.351562 492.480469 49.511719 404.035156 46.542969 L 404.089844 51.40625 Z M 404.089844 98.84375 "/>
<path style=" stroke:none;fill-rule:nonzero;fill:rgb(100%,100%,100%);fill-opacity:1;" d="M 280.957031 175.855469 C 259.847656 176.242188 240.789062 179.566406 222.976562 184.480469 C 219.792969 197.878906 218.09375 211.851562 218.09375 226.226562 C 218.09375 229.511719 218.191406 232.78125 218.363281 236.023438 C 218.511719 238.769531 218.71875 241.496094 218.988281 244.207031 C 219.148438 245.832031 219.339844 247.449219 219.542969 249.0625 C 238.328125 243.828125 258.613281 240.195312 280.867188 239.796875 L 281.046875 239.796875 C 286.5625 239.894531 291.949219 240.203125 297.230469 240.671875 L 323.933594 180.816406 C 310.480469 177.960938 296.257812 176.136719 280.957031 175.855469 "/>
<path style=" stroke:none;fill-rule:nonzero;fill:rgb(100%,100%,100%);fill-opacity:1;" d="M 577.199219 212.890625 C 551.46875 224.496094 526.03125 234.105469 495.976562 234.105469 C 476.746094 234.105469 458.519531 229.707031 440.347656 223.347656 L 460.65625 293.09375 C 472.296875 296.160156 484.003906 298.046875 495.976562 298.046875 C 522.757812 298.046875 546.164062 289.664062 569.738281 279.214844 C 574.898438 262.460938 577.695312 244.671875 577.695312 226.226562 C 577.695312 221.738281 577.523438 217.296875 577.199219 212.890625 "/>
<path style=" stroke:none;fill-rule:nonzero;fill:rgb(100%,100%,100%);fill-opacity:1;" d="M 449.269531 289.730469 C 434.777344 239.972656 420.621094 191.351562 406.460938 142.738281 C 405.976562 142.882812 405.488281 143.03125 405.003906 143.179688 C 405.003906 185.234375 404.992188 227.289062 405.03125 269.34375 C 405.03125 270.296875 404.929688 271.308594 404.925781 272.292969 C 405.257812 272.433594 405.59375 272.578125 405.925781 272.71875 C 420.636719 278.992188 434.957031 285.089844 449.269531 289.730469 "/>
<path style=" stroke:none;fill-rule:nonzero;fill:rgb(100%,100%,100%);fill-opacity:1;" d="M 280.957031 313.734375 L 281.046875 313.734375 C 330.777344 314.625 370.699219 331.644531 405.925781 346.65625 C 436.480469 359.679688 465.34375 371.984375 495.980469 371.984375 C 498.507812 371.984375 501.003906 371.898438 503.476562 371.753906 C 504.953125 370.683594 506.414062 369.59375 507.855469 368.476562 C 508.476562 367.996094 509.097656 367.511719 509.714844 367.023438 C 534.261719 347.5 553.585938 321.695312 565.261719 292.042969 C 543.488281 301.175781 521.382812 308.042969 495.980469 308.042969 C 463.300781 308.042969 433.527344 295.351562 402.003906 281.914062 C 365.964844 266.550781 328.699219 250.667969 280.957031 249.792969 C 259.097656 250.191406 239.433594 253.746094 221.078125 258.949219 C 222.105469 264.542969 223.382812 270.050781 224.914062 275.449219 C 226.125 279.714844 227.492188 283.917969 229.003906 288.046875 C 229.867188 290.398438 230.789062 292.726562 231.742188 295.035156 C 233.300781 298.796875 234.988281 302.488281 236.789062 306.117188 C 238.40625 309.371094 240.109375 312.582031 241.917969 315.722656 C 242.273438 316.339844 242.640625 316.953125 243.007812 317.566406 C 254.992188 315.371094 267.578125 313.972656 280.867188 313.734375 Z M 280.957031 313.734375 "/>
<path style=" stroke:none;fill-rule:nonzero;fill:rgb(100%,100%,100%);fill-opacity:1;" d="M 280.957031 323.730469 C 269.679688 323.9375 258.992188 324.988281 248.757812 326.664062 C 249.582031 327.890625 250.414062 329.109375 251.265625 330.308594 C 254.609375 335.007812 258.171875 339.539062 261.941406 343.890625 C 262.882812 344.980469 263.835938 346.054688 264.804688 347.117188 C 266.738281 349.246094 268.722656 351.328125 270.757812 353.363281 C 273.808594 356.414062 276.964844 359.355469 280.230469 362.179688 C 311.765625 389.496094 352.898438 406.023438 397.894531 406.023438 C 430.796875 406.023438 461.613281 397.160156 488.144531 381.730469 C 458.5 379.921875 430.992188 368.207031 402.003906 355.851562 C 365.964844 340.488281 328.699219 324.601562 280.957031 323.730469 "/>
</g>
</svg>
