<?xml version="1.0" encoding="UTF-8"?>
<svg xmlns="http://www.w3.org/2000/svg" xmlns:xlink="http://www.w3.org/1999/xlink" width="452.718pt" height="452.718pt" viewBox="0 0 452.718 452.718" version="1.2">
<defs>
<clipPath id="clip1">
  <path d="M 0 0 L 452.4375 0 L 452.4375 452.4375 L 0 452.4375 Z M 0 0 "/>
</clipPath>
</defs>
<g id="surface1">
<path style=" stroke:none;fill-rule:nonzero;fill:rgb(28.486633%,65.959167%,87.861633%);fill-opacity:1;" d="M 222.882812 72.710938 C 222.503906 72.59375 222.125 72.480469 221.742188 72.363281 C 196.96875 127.886719 172.195312 183.414062 147.007812 239.867188 C 175.640625 243.726562 200.410156 253.152344 222.882812 262.578125 Z M 222.882812 72.710938 "/>
<path style=" stroke:none;fill-rule:nonzero;fill:rgb(96.430969%,62.19635%,24.511719%);fill-opacity:1;" d="M 76.277344 179.414062 C 91.167969 175.640625 107.128906 173.097656 124.453125 172.785156 L 124.609375 172.785156 C 139.285156 173.050781 152.988281 174.917969 165.886719 177.773438 L 214.667969 68.441406 C 149.167969 73.578125 94.90625 118.699219 76.277344 179.414062 "/>
<path style=" stroke:none;fill-rule:nonzero;fill:rgb(96.430969%,62.19635%,24.511719%);fill-opacity:1;" d="M 231.65625 114.351562 L 260.441406 213.199219 C 277.636719 219.644531 294.640625 224.308594 312.316406 224.308594 C 337.941406 224.308594 360.046875 215.570312 382.664062 205.257812 C 372.664062 129.71875 309.246094 71.050781 231.609375 68.441406 L 231.65625 72.710938 Z M 231.65625 114.351562 "/>
<path style=" stroke:none;fill-rule:nonzero;fill:rgb(61.500549%,87.04834%,85.957336%);fill-opacity:1;" d="M 123.570312 181.953125 C 105.042969 182.292969 88.3125 185.210938 72.679688 189.523438 C 69.878906 201.285156 68.390625 213.550781 68.390625 226.167969 C 68.390625 229.054688 68.472656 231.921875 68.628906 234.769531 C 68.757812 237.175781 68.9375 239.570312 69.175781 241.949219 C 69.316406 243.375 69.484375 244.796875 69.664062 246.214844 C 86.152344 241.621094 103.960938 238.429688 123.492188 238.082031 L 123.570312 238.078125 L 123.652344 238.082031 C 128.492188 238.167969 133.21875 238.4375 137.855469 238.851562 L 161.296875 186.304688 C 149.488281 183.804688 137.003906 182.199219 123.570312 181.953125 "/>
<path style=" stroke:none;fill-rule:nonzero;fill:rgb(61.500549%,87.04834%,85.957336%);fill-opacity:1;" d="M 383.613281 214.464844 C 361.027344 224.648438 338.695312 233.082031 312.316406 233.082031 C 295.433594 233.082031 279.433594 229.222656 263.484375 223.640625 L 281.3125 284.863281 C 291.53125 287.558594 301.804688 289.210938 312.316406 289.210938 C 335.824219 289.210938 356.367188 281.855469 377.0625 272.679688 C 381.59375 257.976562 384.046875 242.359375 384.046875 226.167969 C 384.046875 222.230469 383.894531 218.328125 383.613281 214.464844 "/>
<path style=" stroke:none;fill-rule:nonzero;fill:rgb(28.486633%,65.959167%,87.861633%);fill-opacity:1;" d="M 271.3125 281.914062 C 258.59375 238.234375 246.164062 195.554688 233.738281 152.882812 C 233.3125 153.011719 232.886719 153.140625 232.460938 153.269531 C 232.460938 190.183594 232.449219 227.097656 232.480469 264.015625 C 232.484375 264.851562 232.394531 265.742188 232.390625 266.605469 C 232.683594 266.730469 232.976562 266.855469 233.269531 266.980469 C 246.183594 272.484375 258.75 277.839844 271.3125 281.914062 "/>
<path style=" stroke:none;fill-rule:nonzero;fill:rgb(40.301514%,80.149841%,82.611084%);fill-opacity:1;" d="M 123.570312 302.980469 L 123.652344 302.980469 C 167.304688 303.765625 202.347656 318.703125 233.269531 331.878906 C 260.089844 343.3125 285.425781 354.113281 312.316406 354.113281 C 314.535156 354.113281 316.726562 354.039062 318.898438 353.914062 C 320.195312 352.972656 321.476562 352.015625 322.742188 351.035156 C 323.289062 350.613281 323.832031 350.1875 324.371094 349.757812 C 345.917969 332.621094 362.882812 309.972656 373.128906 283.941406 C 354.019531 291.957031 334.613281 297.984375 312.316406 297.984375 C 283.632812 297.984375 257.496094 286.84375 229.828125 275.050781 C 198.191406 261.566406 165.476562 247.621094 123.570312 246.855469 C 104.382812 247.203125 87.125 250.324219 71.011719 254.894531 C 71.910156 259.804688 73.03125 264.636719 74.378906 269.375 C 75.441406 273.117188 76.640625 276.808594 77.96875 280.433594 C 78.726562 282.5 79.53125 284.542969 80.371094 286.566406 C 81.742188 289.867188 83.21875 293.113281 84.800781 296.292969 C 86.222656 299.152344 87.714844 301.96875 89.300781 304.726562 C 89.613281 305.269531 89.9375 305.804688 90.257812 306.34375 C 100.78125 304.417969 111.828125 303.191406 123.492188 302.980469 Z M 123.570312 302.980469 "/>
<path style=" stroke:none;fill-rule:nonzero;fill:rgb(25.735474%,73.277283%,70.150757%);fill-opacity:1;" d="M 123.570312 311.757812 C 113.671875 311.9375 104.289062 312.859375 95.308594 314.332031 C 96.03125 315.40625 96.761719 316.476562 97.507812 317.53125 C 100.445312 321.65625 103.570312 325.636719 106.878906 329.453125 C 107.703125 330.40625 108.542969 331.351562 109.390625 332.285156 C 111.089844 334.15625 112.832031 335.980469 114.617188 337.765625 C 117.296875 340.445312 120.070312 343.027344 122.933594 345.507812 C 150.613281 369.484375 186.722656 383.992188 226.21875 383.992188 C 255.097656 383.992188 282.152344 376.214844 305.4375 362.667969 C 279.417969 361.082031 255.269531 350.796875 229.828125 339.953125 C 198.191406 326.46875 165.476562 312.523438 123.570312 311.757812 "/>
<path style=" stroke:none;fill-rule:nonzero;fill:rgb(25.735474%,73.277283%,70.150757%);fill-opacity:1;" d="M 167.222656 416.988281 L 176.320312 419.566406 L 174.851562 407.496094 Z M 167.222656 416.988281 "/>
<path style=" stroke:none;fill-rule:nonzero;fill:rgb(25.735474%,73.277283%,70.150757%);fill-opacity:1;" d="M 287.324219 415.222656 L 275.730469 418.65625 L 277.742188 425.445312 L 289.335938 422.007812 C 291.699219 421.308594 292.859375 419.496094 292.246094 417.429688 C 291.644531 415.40625 289.6875 414.519531 287.324219 415.222656 "/>
<path style=" stroke:none;fill-rule:nonzero;fill:rgb(25.735474%,73.277283%,70.150757%);fill-opacity:1;" d="M 286.632812 405.609375 C 286.09375 403.796875 284.480469 402.992188 282.457031 403.589844 L 272.167969 406.640625 L 273.96875 412.710938 L 284.253906 409.664062 C 286.238281 409.074219 287.195312 407.507812 286.632812 405.609375 "/>
<path style=" stroke:none;fill-rule:nonzero;fill:rgb(25.735474%,73.277283%,70.150757%);fill-opacity:1;" d="M 86.523438 94.414062 L 75.042969 90.414062 L 80.203125 101.441406 Z M 86.523438 94.414062 "/>
<g clip-path="url(#clip1)" clip-rule="nonzero">
<path style=" stroke:none;fill-rule:nonzero;fill:rgb(25.735474%,73.277283%,70.150757%);fill-opacity:1;" d="M 330.792969 357.890625 C 330.214844 358.347656 329.636719 358.800781 329.054688 359.25 C 327.644531 360.34375 326.214844 361.414062 324.769531 362.460938 C 323.882812 363.105469 322.988281 363.738281 322.085938 364.367188 C 318.914062 366.574219 315.660156 368.671875 312.332031 370.660156 C 287.144531 385.710938 257.691406 394.367188 226.21875 394.367188 C 184.136719 394.367188 145.667969 378.910156 116.175781 353.363281 C 113.125 350.722656 110.171875 347.96875 107.316406 345.117188 C 105.417969 343.214844 103.558594 341.269531 101.75 339.277344 C 100.847656 338.28125 99.953125 337.277344 99.070312 336.257812 C 95.546875 332.191406 92.21875 327.953125 89.089844 323.558594 C 87.234375 320.949219 85.460938 318.273438 83.753906 315.558594 C 82.585938 313.699219 81.441406 311.820312 80.347656 309.914062 C 78.65625 306.976562 77.066406 303.976562 75.550781 300.933594 C 73.867188 297.539062 72.289062 294.085938 70.832031 290.570312 C 69.9375 288.410156 69.078125 286.234375 68.269531 284.035156 C 66.855469 280.167969 65.582031 276.242188 64.449219 272.25 C 61.769531 262.824219 59.898438 253.058594 58.902344 243.03125 C 58.652344 240.5 58.457031 237.945312 58.320312 235.382812 C 58.15625 232.347656 58.070312 229.292969 58.070312 226.21875 C 58.070312 133.351562 133.351562 58.066406 226.21875 58.066406 C 319.085938 58.066406 394.367188 133.351562 394.367188 226.21875 C 394.367188 279.554688 369.527344 327.085938 330.792969 357.890625 M 384.15625 368.652344 L 371.585938 365.03125 L 365.191406 371.570312 L 373.429688 379.625 L 367.804688 385.378906 L 343.910156 362.019531 L 356.726562 348.910156 C 361.980469 343.535156 368.628906 343.023438 373.3125 347.601562 C 376.363281 350.582031 377.21875 354.492188 375.957031 358.421875 L 389.644531 361.90625 L 390.210938 362.457031 Z M 324.34375 415.265625 L 307.054688 386.671875 L 331.582031 371.839844 L 335.15625 377.746094 L 317.511719 388.417969 L 320.605469 393.53125 L 337.082031 383.566406 L 340.65625 389.476562 L 324.175781 399.441406 L 327.65625 405.195312 L 345.679688 394.296875 L 349.25 400.203125 Z M 291.675781 428.515625 L 271.988281 434.351562 L 262.492188 402.308594 L 280.871094 396.859375 C 287.410156 394.921875 292.761719 397.050781 294.3125 402.277344 C 295.050781 404.765625 294.46875 407.140625 292.773438 409.15625 C 296.523438 409.742188 299.300781 411.992188 300.363281 415.574219 C 302.050781 421.269531 298.59375 426.464844 291.675781 428.515625 M 238.867188 438.65625 L 238.75 416.933594 L 227.738281 429.832031 L 226.949219 429.835938 L 215.796875 417.058594 L 215.914062 438.78125 L 208.089844 438.824219 L 207.90625 405.402344 L 215.734375 405.363281 L 227.285156 418.796875 L 238.6875 405.238281 L 246.511719 405.195312 L 246.695312 438.613281 Z M 186.371094 435.855469 L 178.082031 433.503906 L 177.28125 426.972656 L 162.515625 422.785156 L 158.40625 427.929688 L 150.117188 425.578125 L 150.332031 424.816406 L 173.953125 397.597656 L 180.765625 399.53125 L 186.589844 435.09375 Z M 130.40625 416.640625 L 123.480469 412.464844 L 130.515625 400.789062 L 116.621094 392.410156 L 109.582031 404.085938 L 102.691406 399.929688 L 119.945312 371.3125 L 126.839844 375.464844 L 120.1875 386.5 L 134.082031 394.878906 L 140.734375 383.84375 L 147.664062 388.023438 Z M 95.222656 358.121094 C 90.609375 353.347656 84.710938 352.9375 80.441406 357.058594 C 76.140625 361.214844 76.347656 367.191406 81.023438 372.027344 C 83.621094 374.714844 88.066406 376.65625 92.105469 376.851562 L 86.253906 382.503906 C 82.535156 381.878906 77.886719 379.15625 74.648438 375.804688 C 67.222656 368.121094 67.207031 358.171875 74.667969 350.960938 C 82.003906 343.871094 91.886719 344.289062 99.3125 351.972656 C 102.609375 355.390625 105.023438 359.785156 105.488281 363.304688 L 99.703125 368.898438 C 99.707031 365.164062 97.945312 360.9375 95.222656 358.121094 M 70.5 81.59375 L 104.984375 92.035156 L 105.574219 92.566406 L 99.808594 98.972656 L 93.59375 96.8125 L 83.332031 108.21875 L 86.136719 114.171875 L 80.375 120.578125 L 79.785156 120.050781 L 65.765625 86.855469 Z M 103.945312 52.183594 L 129.910156 61.117188 L 118.203125 42.980469 L 124.777344 38.734375 L 142.902344 66.808594 L 136.324219 71.050781 L 110.359375 62.121094 L 122.066406 80.257812 L 115.492188 84.5 L 97.371094 56.425781 Z M 163.910156 22.527344 C 169.027344 20.917969 174.652344 20.625 178.375 21.757812 L 180.773438 29.394531 C 177.128906 27.773438 171.863281 27.585938 167.582031 28.933594 C 160.664062 31.109375 157.234375 36.335938 159.015625 42 C 160.8125 47.703125 166.542969 50.097656 173.292969 47.972656 C 174.847656 47.484375 176.433594 46.664062 177.925781 45.6875 L 176.101562 39.898438 L 168.300781 42.351562 L 166.230469 35.765625 L 181.707031 30.898438 L 186.972656 47.632812 C 184.402344 50.609375 179.277344 53.648438 174.199219 55.246094 C 163.378906 58.648438 154.132812 54.320312 151.019531 44.421875 C 147.960938 34.6875 153.089844 25.929688 163.910156 22.527344 M 210.089844 14.160156 L 210.796875 33.316406 C 210.964844 37.796875 214.328125 40.664062 219.160156 40.484375 C 223.992188 40.304688 227.132812 37.195312 226.96875 32.714844 L 226.257812 13.558594 L 234.296875 13.261719 L 235.023438 32.8125 C 235.339844 41.382812 229.136719 47.332031 219.425781 47.691406 C 209.71875 48.050781 203.089844 42.578125 202.773438 34.011719 L 202.046875 14.460938 Z M 258.039062 16.027344 L 265.972656 17.371094 L 260.378906 50.316406 L 252.449219 48.972656 Z M 289.179688 22.824219 L 296.71875 25.640625 L 287.441406 50.480469 L 305.527344 57.230469 L 303.109375 63.699219 L 277.488281 54.128906 Z M 333.636719 42.394531 L 340.335938 46.84375 L 325.671875 68.929688 L 341.75 79.609375 L 337.933594 85.359375 L 315.152344 70.230469 Z M 347.507812 92.042969 L 382 81.605469 L 386.734375 86.871094 L 372.707031 120.066406 L 372.117188 120.59375 L 366.355469 114.183594 L 369.160156 108.230469 L 358.898438 96.820312 L 352.683594 98.980469 L 346.917969 92.574219 Z M 434.644531 138.152344 C 423.25 111.210938 406.941406 87.023438 386.179688 66.257812 C 365.414062 45.492188 341.226562 29.1875 314.28125 17.792969 C 286.371094 5.984375 256.742188 0 226.21875 0 C 195.695312 0 166.0625 5.984375 138.152344 17.792969 C 111.210938 29.1875 87.023438 45.492188 66.257812 66.257812 C 45.492188 87.023438 29.1875 111.210938 17.792969 138.152344 C 5.984375 166.066406 0 195.695312 0 226.21875 C 0 256.742188 5.984375 286.371094 17.792969 314.28125 C 29.1875 341.226562 45.492188 365.414062 66.257812 386.179688 C 87.023438 406.941406 111.210938 423.25 138.152344 434.644531 C 166.0625 446.449219 195.695312 452.4375 226.21875 452.4375 C 256.742188 452.4375 286.371094 446.449219 314.28125 434.644531 C 341.226562 423.25 365.414062 406.941406 386.179688 386.179688 C 406.941406 365.414062 423.25 341.226562 434.644531 314.28125 C 446.449219 286.371094 452.4375 256.742188 452.4375 226.21875 C 452.4375 195.695312 446.449219 166.066406 434.644531 138.152344 "/>
</g>
<path style=" stroke:none;fill-rule:nonzero;fill:rgb(25.735474%,73.277283%,70.150757%);fill-opacity:1;" d="M 361.386719 354.019531 L 354.472656 361.09375 L 360.257812 366.746094 L 367.171875 359.671875 C 369.078125 357.722656 369.140625 355.265625 367.445312 353.605469 C 365.714844 351.917969 363.261719 352.101562 361.386719 354.019531 "/>
<path style=" stroke:none;fill-rule:nonzero;fill:rgb(25.735474%,73.277283%,70.150757%);fill-opacity:1;" d="M 377.484375 90.457031 L 365.96875 94.425781 L 372.292969 101.453125 Z M 377.484375 90.457031 "/>
</g>
</svg>
