<?xml version="1.0" encoding="UTF-8"?>
<svg xmlns="http://www.w3.org/2000/svg" xmlns:xlink="http://www.w3.org/1999/xlink" width="1355.23pt" height="452.718pt" viewBox="0 0 1355.23 452.718" version="1.2">
<defs>
<clipPath id="clip1">
  <path d="M 1284 298 L 1354.421875 298 L 1354.421875 382 L 1284 382 Z M 1284 298 "/>
</clipPath>
<clipPath id="clip2">
  <path d="M 1327 218 L 1354.421875 218 L 1354.421875 251 L 1327 251 Z M 1327 218 "/>
</clipPath>
<clipPath id="clip3">
  <path d="M 1284 268 L 1354.421875 268 L 1354.421875 277 L 1284 277 Z M 1284 268 "/>
</clipPath>
<clipPath id="clip4">
  <path d="M 1247 71 L 1354.421875 71 L 1354.421875 166 L 1247 166 Z M 1247 71 "/>
</clipPath>
<clipPath id="clip5">
  <path d="M 3 0 L 456 0 L 456 452.4375 L 3 452.4375 Z M 3 0 "/>
</clipPath>
</defs>
<g id="surface1">
<path style=" stroke:none;fill-rule:nonzero;fill:rgb(100%,100%,100%);fill-opacity:1;" d="M 558.523438 339.660156 C 558.523438 314.050781 576.109375 296.90625 602.269531 296.90625 C 613.261719 296.90625 625.128906 300.972656 632.277344 307.128906 L 632.277344 317.242188 C 625.242188 310.316406 613.921875 305.808594 603.917969 305.808594 C 582.925781 305.808594 568.855469 319.328125 568.855469 339.773438 C 568.855469 360.105469 582.925781 373.734375 604.027344 373.734375 C 614.140625 373.734375 625.902344 368.898438 633.375 361.535156 L 633.375 371.867188 C 625.902344 378.351562 613.480469 382.640625 602.269531 382.640625 C 576 382.640625 558.523438 365.492188 558.523438 339.660156 "/>
<path style=" stroke:none;fill-rule:nonzero;fill:rgb(100%,100%,100%);fill-opacity:1;" d="M 728.671875 339.773438 C 728.671875 319.4375 715.042969 305.808594 694.597656 305.808594 C 674.265625 305.808594 660.636719 319.4375 660.636719 339.773438 C 660.636719 360.105469 674.265625 373.734375 694.597656 373.734375 C 715.042969 373.734375 728.671875 360.105469 728.671875 339.773438 M 650.195312 339.773438 C 650.195312 314.050781 668 296.90625 694.597656 296.90625 C 721.308594 296.90625 739.003906 314.050781 739.003906 339.773438 C 739.003906 365.492188 721.308594 382.640625 694.597656 382.640625 C 668 382.640625 650.195312 365.492188 650.195312 339.773438 "/>
<path style=" stroke:none;fill-rule:nonzero;fill:rgb(100%,100%,100%);fill-opacity:1;" d="M 853.097656 298.003906 L 853.097656 381.539062 L 843.421875 381.539062 L 843.421875 312.734375 L 808.472656 355.820312 L 807.484375 355.820312 L 772.53125 312.625 L 772.53125 381.539062 L 762.859375 381.539062 L 762.859375 298.003906 L 772.53125 298.003906 L 808.03125 341.972656 L 843.421875 298.003906 Z M 853.097656 298.003906 "/>
<path style=" stroke:none;fill-rule:nonzero;fill:rgb(100%,100%,100%);fill-opacity:1;" d="M 972.574219 298.003906 L 972.574219 381.539062 L 962.902344 381.539062 L 962.902344 312.734375 L 927.949219 355.820312 L 926.960938 355.820312 L 892.007812 312.625 L 892.007812 381.539062 L 882.335938 381.539062 L 882.335938 298.003906 L 892.007812 298.003906 L 927.511719 341.972656 L 962.902344 298.003906 Z M 972.574219 298.003906 "/>
<path style=" stroke:none;fill-rule:nonzero;fill:rgb(100%,100%,100%);fill-opacity:1;" d="M 1071.828125 372.964844 L 1071.828125 381.539062 L 1001.8125 381.539062 L 1001.8125 298.003906 L 1070.621094 298.003906 L 1070.621094 306.578125 L 1011.707031 306.578125 L 1011.707031 334.386719 L 1067.101562 334.386719 L 1067.101562 342.847656 L 1011.707031 342.847656 L 1011.707031 372.964844 Z M 1071.828125 372.964844 "/>
<path style=" stroke:none;fill-rule:nonzero;fill:rgb(100%,100%,100%);fill-opacity:1;" d="M 1105.027344 339.441406 L 1139.097656 339.441406 C 1149.980469 339.441406 1157.234375 332.847656 1157.234375 323.066406 C 1157.234375 313.171875 1149.871094 306.578125 1139.097656 306.578125 L 1105.027344 306.578125 Z M 1169.542969 380.550781 L 1169.542969 381.539062 L 1158.773438 381.539062 L 1140.308594 348.015625 L 1105.027344 348.015625 L 1105.027344 381.539062 L 1095.132812 381.539062 L 1095.132812 298.003906 L 1139.648438 298.003906 C 1156.464844 298.003906 1167.675781 308.007812 1167.675781 323.066406 C 1167.675781 334.496094 1160.972656 343.070312 1150.199219 346.476562 Z M 1169.542969 380.550781 "/>
<path style=" stroke:none;fill-rule:nonzero;fill:rgb(100%,100%,100%);fill-opacity:1;" d="M 1186.695312 339.660156 C 1186.695312 314.050781 1204.28125 296.90625 1230.441406 296.90625 C 1241.429688 296.90625 1253.300781 300.972656 1260.445312 307.128906 L 1260.445312 317.242188 C 1253.410156 310.316406 1242.089844 305.808594 1232.089844 305.808594 C 1211.097656 305.808594 1197.027344 319.328125 1197.027344 339.773438 C 1197.027344 360.105469 1211.097656 373.734375 1232.199219 373.734375 C 1242.3125 373.734375 1254.070312 368.898438 1261.546875 361.535156 L 1261.546875 371.867188 C 1254.070312 378.351562 1241.652344 382.640625 1230.441406 382.640625 C 1204.171875 382.640625 1186.695312 365.492188 1186.695312 339.660156 "/>
<g clip-path="url(#clip1)" clip-rule="nonzero">
<path style=" stroke:none;fill-rule:nonzero;fill:rgb(100%,100%,100%);fill-opacity:1;" d="M 1354.421875 372.964844 L 1354.421875 381.539062 L 1284.410156 381.539062 L 1284.410156 298.003906 L 1353.214844 298.003906 L 1353.214844 306.578125 L 1294.300781 306.578125 L 1294.300781 334.386719 L 1349.699219 334.386719 L 1349.699219 342.847656 L 1294.300781 342.847656 L 1294.300781 372.964844 Z M 1354.421875 372.964844 "/>
</g>
<path style=" stroke:none;fill-rule:nonzero;fill:rgb(100%,100%,100%);fill-opacity:1;" d="M 1314.726562 234.304688 C 1314.726562 226.449219 1309.460938 221.183594 1301.5625 221.183594 C 1293.707031 221.183594 1288.441406 226.449219 1288.441406 234.304688 C 1288.441406 242.15625 1293.707031 247.421875 1301.5625 247.421875 C 1309.460938 247.421875 1314.726562 242.15625 1314.726562 234.304688 M 1284.410156 234.304688 C 1284.410156 224.367188 1291.289062 217.746094 1301.5625 217.746094 C 1311.882812 217.746094 1318.71875 224.367188 1318.71875 234.304688 C 1318.71875 244.238281 1311.882812 250.863281 1301.5625 250.863281 C 1291.289062 250.863281 1284.410156 244.238281 1284.410156 234.304688 "/>
<g clip-path="url(#clip2)" clip-rule="nonzero">
<path style=" stroke:none;fill-rule:nonzero;fill:rgb(100%,100%,100%);fill-opacity:1;" d="M 1331.75 221.480469 L 1331.75 232.351562 L 1352.640625 232.351562 L 1352.640625 235.660156 L 1331.75 235.660156 L 1331.75 250.4375 L 1327.925781 250.4375 L 1327.925781 218.167969 L 1354.421875 218.167969 L 1354.421875 221.480469 Z M 1331.75 221.480469 "/>
</g>
<path style=" stroke:none;fill-rule:nonzero;fill:rgb(100%,100%,100%);fill-opacity:1;" d="M 558.523438 234.742188 C 558.523438 209.132812 576.109375 191.988281 602.269531 191.988281 C 613.261719 191.988281 625.128906 196.054688 632.277344 202.207031 L 632.277344 212.320312 C 625.242188 205.394531 613.921875 200.890625 603.917969 200.890625 C 582.925781 200.890625 568.855469 214.410156 568.855469 234.851562 C 568.855469 255.183594 582.925781 268.816406 604.027344 268.816406 C 614.140625 268.816406 625.902344 263.980469 633.375 256.617188 L 633.375 266.949219 C 625.902344 273.433594 613.480469 277.71875 602.269531 277.71875 C 576 277.71875 558.523438 260.570312 558.523438 234.742188 "/>
<path style=" stroke:none;fill-rule:nonzero;fill:rgb(100%,100%,100%);fill-opacity:1;" d="M 733.289062 193.085938 L 733.289062 276.621094 L 723.394531 276.621094 L 723.394531 237.929688 L 666.132812 237.929688 L 666.132812 276.621094 L 656.238281 276.621094 L 656.238281 193.085938 L 666.132812 193.085938 L 666.132812 229.464844 L 723.394531 229.464844 L 723.394531 193.085938 Z M 733.289062 193.085938 "/>
<path style=" stroke:none;fill-rule:nonzero;fill:rgb(100%,100%,100%);fill-opacity:1;" d="M 816.164062 245.402344 L 796.382812 204.296875 L 776.597656 245.402344 Z M 841.886719 275.628906 L 841.886719 276.617188 L 831.222656 276.617188 L 820.339844 253.976562 L 772.421875 253.976562 L 761.539062 276.617188 L 750.875 276.617188 L 750.875 275.628906 L 791.984375 193.085938 L 800.886719 193.085938 Z M 841.886719 275.628906 "/>
<path style=" stroke:none;fill-rule:nonzero;fill:rgb(100%,100%,100%);fill-opacity:1;" d="M 949.824219 193.085938 L 949.824219 276.621094 L 940.148438 276.621094 L 940.148438 207.8125 L 905.199219 250.898438 L 904.207031 250.898438 L 869.253906 207.703125 L 869.253906 276.621094 L 859.582031 276.621094 L 859.582031 193.085938 L 869.253906 193.085938 L 904.757812 237.050781 L 940.148438 193.085938 Z M 949.824219 193.085938 "/>
<path style=" stroke:none;fill-rule:nonzero;fill:rgb(100%,100%,100%);fill-opacity:1;" d="M 1045.339844 252.769531 C 1045.339844 243.644531 1038.523438 237.601562 1028.300781 237.601562 L 988.953125 237.601562 L 988.953125 268.046875 L 1028.300781 268.046875 C 1038.523438 268.046875 1045.339844 262 1045.339844 252.769531 M 988.953125 229.796875 L 1024.894531 229.796875 C 1034.347656 229.796875 1040.613281 224.191406 1040.613281 215.726562 C 1040.613281 207.265625 1034.347656 201.65625 1024.894531 201.65625 L 988.953125 201.65625 Z M 1055.671875 253.429688 C 1055.671875 267.386719 1045.007812 276.617188 1028.851562 276.617188 L 979.0625 276.617188 L 979.0625 193.085938 L 1025.445312 193.085938 C 1040.722656 193.085938 1050.945312 201.65625 1050.945312 214.519531 C 1050.945312 222.542969 1046.546875 228.808594 1039.183594 232.105469 C 1049.40625 235.179688 1055.671875 242.984375 1055.671875 253.429688 "/>
<path style=" stroke:none;fill-rule:nonzero;fill:rgb(100%,100%,100%);fill-opacity:1;" d="M 1149.320312 268.046875 L 1149.320312 276.617188 L 1079.304688 276.617188 L 1079.304688 193.085938 L 1148.113281 193.085938 L 1148.113281 201.65625 L 1089.199219 201.65625 L 1089.199219 229.464844 L 1144.59375 229.464844 L 1144.59375 237.929688 L 1089.199219 237.929688 L 1089.199219 268.046875 Z M 1149.320312 268.046875 "/>
<path style=" stroke:none;fill-rule:nonzero;fill:rgb(100%,100%,100%);fill-opacity:1;" d="M 1182.519531 234.523438 L 1216.589844 234.523438 C 1227.472656 234.523438 1234.726562 227.925781 1234.726562 218.144531 C 1234.726562 208.253906 1227.363281 201.65625 1216.589844 201.65625 L 1182.519531 201.65625 Z M 1247.035156 275.628906 L 1247.035156 276.621094 L 1236.265625 276.621094 L 1217.796875 243.097656 L 1182.519531 243.097656 L 1182.519531 276.621094 L 1172.625 276.621094 L 1172.625 193.085938 L 1217.140625 193.085938 C 1233.957031 193.085938 1245.167969 203.089844 1245.167969 218.144531 C 1245.167969 229.578125 1238.464844 238.148438 1227.691406 241.558594 Z M 1247.035156 275.628906 "/>
<g clip-path="url(#clip3)" clip-rule="nonzero">
<path style=" stroke:none;fill-rule:nonzero;fill:rgb(100%,100%,100%);fill-opacity:1;" d="M 1284.410156 268.046875 L 1354.421875 268.046875 L 1354.421875 276.617188 L 1284.410156 276.617188 Z M 1284.410156 268.046875 "/>
</g>
<path style=" stroke:none;fill-rule:nonzero;fill:rgb(100%,100%,100%);fill-opacity:1;" d="M 625.375 129.164062 L 612.027344 97.359375 L 598.558594 129.164062 Z M 665.40625 163.582031 L 665.40625 165.828125 L 640.964844 165.828125 L 633.730469 148.617188 L 590.203125 148.617188 L 582.96875 165.828125 L 558.523438 165.828125 L 558.523438 163.582031 L 601.925781 71.042969 L 622.003906 71.042969 Z M 665.40625 163.582031 "/>
<path style=" stroke:none;fill-rule:nonzero;fill:rgb(100%,100%,100%);fill-opacity:1;" d="M 771.410156 71.042969 L 771.410156 165.832031 L 749.207031 165.832031 L 701.066406 104.59375 L 701.066406 165.832031 L 678.867188 165.832031 L 678.867188 71.042969 L 701.066406 71.042969 L 749.207031 132.28125 L 749.207031 71.042969 Z M 771.410156 71.042969 "/>
<path style=" stroke:none;fill-rule:nonzero;fill:rgb(100%,100%,100%);fill-opacity:1;" d="M 885.640625 107.585938 L 885.640625 157.347656 C 876.164062 163.210938 859.699219 167.074219 844.609375 167.074219 C 812.433594 167.074219 791.105469 147.496094 791.105469 118.0625 C 791.105469 89.128906 812.433594 69.796875 844.609375 69.796875 C 859.824219 69.796875 875.289062 73.789062 884.394531 80.023438 L 884.394531 102.722656 C 875.914062 95.238281 861.820312 90.25 849.097656 90.25 C 828.519531 90.25 814.800781 101.476562 814.800781 118.3125 C 814.800781 135.273438 828.269531 146.625 848.351562 146.625 C 852.964844 146.625 857.953125 145.75 862.816406 144.378906 L 862.816406 127.167969 L 839.621094 127.167969 L 839.621094 107.585938 Z M 885.640625 107.585938 "/>
<path style=" stroke:none;fill-rule:nonzero;fill:rgb(100%,100%,100%);fill-opacity:1;" d="M 907.832031 126.542969 L 907.832031 71.042969 L 930.65625 71.042969 L 930.65625 125.421875 C 930.65625 138.140625 939.886719 146.625 953.605469 146.625 C 967.324219 146.625 976.554688 138.140625 976.554688 125.421875 L 976.554688 71.042969 L 999.375 71.042969 L 999.375 126.542969 C 999.375 150.863281 981.167969 167.078125 953.605469 167.078125 C 926.042969 167.078125 907.832031 150.863281 907.832031 126.542969 "/>
<path style=" stroke:none;fill-rule:nonzero;fill:rgb(100%,100%,100%);fill-opacity:1;" d="M 1023.191406 71.042969 L 1046.015625 71.042969 L 1046.015625 165.828125 L 1023.191406 165.828125 Z M 1023.191406 71.042969 "/>
<path style=" stroke:none;fill-rule:nonzero;fill:rgb(100%,100%,100%);fill-opacity:1;" d="M 1148.652344 146.25 L 1148.652344 165.832031 L 1071.078125 165.832031 L 1071.078125 71.042969 L 1093.902344 71.042969 L 1093.902344 146.25 Z M 1148.652344 146.25 "/>
<path style=" stroke:none;fill-rule:nonzero;fill:rgb(100%,100%,100%);fill-opacity:1;" d="M 1242.183594 146.25 L 1242.183594 165.832031 L 1164.609375 165.832031 L 1164.609375 71.042969 L 1187.433594 71.042969 L 1187.433594 146.25 Z M 1242.183594 146.25 "/>
<g clip-path="url(#clip4)" clip-rule="nonzero">
<path style=" stroke:none;fill-rule:nonzero;fill:rgb(100%,100%,100%);fill-opacity:1;" d="M 1314.390625 129.164062 L 1301.042969 97.359375 L 1287.574219 129.164062 Z M 1354.421875 163.582031 L 1354.421875 165.828125 L 1329.976562 165.828125 L 1322.746094 148.617188 L 1279.21875 148.617188 L 1271.984375 165.828125 L 1247.539062 165.828125 L 1247.539062 163.582031 L 1290.941406 71.042969 L 1311.019531 71.042969 Z M 1354.421875 163.582031 "/>
</g>
<g clip-path="url(#clip5)" clip-rule="nonzero">
<path style=" stroke:none;fill-rule:nonzero;fill:rgb(100%,100%,100%);fill-opacity:1;" d="M 348.886719 376.203125 C 348.230469 376.722656 347.570312 377.238281 346.910156 377.753906 C 345.300781 378.996094 343.675781 380.214844 342.027344 381.40625 C 341.015625 382.140625 339.996094 382.863281 338.96875 383.578125 C 335.355469 386.089844 331.648438 388.484375 327.859375 390.75 C 299.167969 407.890625 265.621094 417.75 229.769531 417.75 C 181.839844 417.75 138.019531 400.144531 104.425781 371.046875 C 100.949219 368.035156 97.585938 364.902344 94.335938 361.652344 C 92.167969 359.484375 90.054688 357.269531 87.992188 355 C 86.964844 353.867188 85.945312 352.722656 84.941406 351.5625 C 80.929688 346.929688 77.132812 342.101562 73.574219 337.09375 C 71.457031 334.121094 69.4375 331.078125 67.492188 327.980469 C 66.160156 325.863281 64.859375 323.726562 63.613281 321.554688 C 61.6875 318.207031 59.875 314.792969 58.148438 311.320312 C 56.230469 307.457031 54.4375 303.523438 52.777344 299.519531 C 51.757812 297.058594 50.777344 294.582031 49.859375 292.074219 C 48.246094 287.671875 46.792969 283.199219 45.503906 278.652344 C 42.453125 267.914062 40.320312 256.789062 39.1875 245.371094 C 38.898438 242.484375 38.679688 239.578125 38.523438 236.65625 C 38.335938 233.199219 38.238281 229.722656 38.238281 226.21875 C 38.238281 120.4375 123.988281 34.683594 229.769531 34.683594 C 335.550781 34.683594 421.304688 120.4375 421.304688 226.21875 C 421.304688 286.972656 393.007812 341.113281 348.886719 376.203125 M 438.195312 138.152344 C 426.800781 111.210938 410.496094 87.023438 389.730469 66.257812 C 368.964844 45.492188 344.777344 29.1875 317.835938 17.789062 C 289.921875 5.984375 260.292969 0 229.769531 0 C 199.246094 0 169.617188 5.984375 141.707031 17.789062 C 114.761719 29.1875 90.574219 45.492188 69.808594 66.257812 C 49.046875 87.023438 32.738281 111.210938 21.34375 138.152344 C 9.539062 166.0625 3.550781 195.695312 3.550781 226.21875 C 3.550781 256.742188 9.539062 286.371094 21.34375 314.285156 C 32.738281 341.222656 49.046875 365.414062 69.808594 386.175781 C 90.574219 406.941406 114.761719 423.25 141.707031 434.644531 C 169.617188 446.449219 199.246094 452.4375 229.769531 452.4375 C 260.292969 452.4375 289.921875 446.449219 317.835938 434.644531 C 344.777344 423.25 368.964844 406.941406 389.730469 386.175781 C 410.496094 365.414062 426.800781 341.222656 438.195312 314.285156 C 450.003906 286.371094 455.988281 256.742188 455.988281 226.21875 C 455.988281 195.695312 450.003906 166.0625 438.195312 138.152344 "/>
</g>
<path style=" stroke:none;fill-rule:nonzero;fill:rgb(100%,100%,100%);fill-opacity:1;" d="M 225.96875 51.316406 C 225.539062 51.183594 225.105469 51.050781 224.671875 50.921875 C 196.445312 114.183594 168.21875 177.449219 139.519531 241.769531 C 172.144531 246.164062 200.363281 256.90625 225.96875 267.644531 Z M 225.96875 51.316406 "/>
<path style=" stroke:none;fill-rule:nonzero;fill:rgb(100%,100%,100%);fill-opacity:1;" d="M 58.929688 172.890625 C 75.894531 168.589844 94.082031 165.691406 113.820312 165.339844 L 113.910156 165.335938 L 114 165.339844 C 130.722656 165.636719 146.332031 167.765625 161.03125 171.023438 L 216.613281 46.449219 C 141.980469 52.304688 80.15625 103.714844 58.929688 172.890625 "/>
<path style=" stroke:none;fill-rule:nonzero;fill:rgb(100%,100%,100%);fill-opacity:1;" d="M 235.964844 98.761719 L 268.765625 211.382812 C 288.355469 218.726562 307.730469 224.042969 327.867188 224.042969 C 357.0625 224.042969 382.25 214.085938 408.019531 202.335938 C 396.628906 116.269531 324.367188 49.421875 235.910156 46.449219 L 235.964844 51.316406 Z M 235.964844 98.761719 "/>
<path style=" stroke:none;fill-rule:nonzero;fill:rgb(100%,100%,100%);fill-opacity:1;" d="M 112.816406 175.78125 C 91.707031 176.167969 72.644531 179.496094 54.828125 184.410156 C 51.644531 197.808594 49.945312 211.785156 49.945312 226.160156 C 49.945312 229.449219 50.039062 232.714844 50.214844 235.960938 C 50.363281 238.703125 50.570312 241.433594 50.839844 244.140625 C 51 245.769531 51.191406 247.386719 51.394531 249 C 70.183594 243.765625 90.46875 240.132812 112.726562 239.734375 L 112.816406 239.730469 L 112.90625 239.734375 C 118.421875 239.832031 123.8125 240.140625 129.089844 240.609375 L 155.800781 180.746094 C 142.34375 177.890625 128.121094 176.0625 112.816406 175.78125 "/>
<path style=" stroke:none;fill-rule:nonzero;fill:rgb(100%,100%,100%);fill-opacity:1;" d="M 409.101562 212.824219 C 383.367188 224.429688 357.925781 234.039062 327.867188 234.039062 C 308.632812 234.039062 290.402344 229.640625 272.230469 223.28125 L 292.542969 293.035156 C 304.183594 296.105469 315.890625 297.992188 327.867188 297.992188 C 354.652344 297.992188 378.058594 289.609375 401.636719 279.15625 C 406.800781 262.402344 409.59375 244.609375 409.59375 226.160156 C 409.59375 221.675781 409.425781 217.226562 409.101562 212.824219 "/>
<path style=" stroke:none;fill-rule:nonzero;fill:rgb(100%,100%,100%);fill-opacity:1;" d="M 281.152344 289.675781 C 266.660156 239.910156 252.5 191.28125 238.339844 142.660156 C 237.851562 142.808594 237.367188 142.953125 236.882812 143.101562 C 236.882812 185.160156 236.867188 227.222656 236.90625 269.285156 C 236.90625 270.238281 236.804688 271.25 236.800781 272.234375 C 237.136719 272.375 237.46875 272.519531 237.800781 272.660156 C 252.515625 278.933594 266.835938 285.03125 281.152344 289.675781 "/>
<path style=" stroke:none;fill-rule:nonzero;fill:rgb(100%,100%,100%);fill-opacity:1;" d="M 112.816406 313.679688 L 112.90625 313.679688 C 162.644531 314.574219 202.574219 331.59375 237.800781 346.609375 C 268.363281 359.632812 297.230469 371.9375 327.867188 371.9375 C 330.398438 371.9375 332.894531 371.855469 335.367188 371.710938 C 336.84375 370.636719 338.304688 369.546875 339.746094 368.429688 C 340.367188 367.949219 340.988281 367.464844 341.605469 366.976562 C 366.15625 347.453125 385.484375 321.644531 397.160156 291.988281 C 375.382812 301.121094 353.273438 307.988281 327.867188 307.988281 C 295.1875 307.988281 265.410156 295.292969 233.882812 281.855469 C 197.835938 266.492188 160.5625 250.605469 112.816406 249.730469 C 90.953125 250.128906 71.289062 253.683594 52.929688 258.890625 C 53.957031 264.484375 55.234375 269.988281 56.769531 275.390625 C 57.980469 279.65625 59.34375 283.859375 60.859375 287.988281 C 61.71875 290.34375 62.640625 292.671875 63.597656 294.980469 C 65.15625 298.738281 66.839844 302.433594 68.640625 306.0625 C 70.261719 309.320312 71.964844 312.527344 73.769531 315.667969 C 74.125 316.289062 74.496094 316.898438 74.859375 317.515625 C 86.847656 315.316406 99.433594 313.917969 112.726562 313.679688 Z M 112.816406 313.679688 "/>
<path style=" stroke:none;fill-rule:nonzero;fill:rgb(100%,100%,100%);fill-opacity:1;" d="M 112.816406 323.679688 C 101.535156 323.882812 90.847656 324.9375 80.613281 326.613281 C 81.4375 327.839844 82.269531 329.058594 83.121094 330.257812 C 86.464844 334.957031 90.027344 339.492188 93.796875 343.84375 C 94.738281 344.929688 95.695312 346.007812 96.660156 347.070312 C 98.597656 349.199219 100.582031 351.28125 102.613281 353.3125 C 105.667969 356.367188 108.824219 359.308594 112.089844 362.132812 C 143.628906 389.453125 184.769531 405.984375 229.769531 405.984375 C 262.675781 405.984375 293.5 397.117188 320.03125 381.6875 C 290.382812 379.878906 262.871094 368.160156 233.882812 355.804688 C 197.835938 340.4375 160.5625 324.550781 112.816406 323.679688 "/>
</g>
</svg>
